<svg version="1.2" xmlns="http://www.w3.org/2000/svg" viewBox="0 0 800 300" width="800" height="300">
	<title>Smart droplets - logo- final-ai</title>
	<style>
		.s0 { fill: #c5d42c } 
		.s1 { fill: #1962ad } 
		.s2 { fill: #fefefe } 
		.s3 { fill: #e61e4d } 
	</style>
	<g id="Layer 1">
		<g id="&lt;Group&gt;">
			<g id="&lt;Group&gt;">
				<path id="&lt;Compound Path&gt;" class="s0" d="m355.4 115.3c0-4.6-2.8-7.7-8.6-9.3-5.6-1.7-12-3.4-18.8-5.2-18.4-4.7-27.6-13.3-27.6-25.8 0.5-19.8 12.2-29.5 35.5-29.4 22.2 0 33.7 9.7 34.9 29.3h-10.9c-4 0-6.8-1.9-8.6-5.5-3.1-5.5-8.8-8.1-17-8.1-10 0.2-15 3.9-15.4 11.1 0 6 5.9 10.3 18.3 13 7.1 1.7 14.6 3.8 22.5 6.6q15.8 5.4 14.9 23.3c-1.1 18.4-13.6 27.6-37.4 27.6-25 0-37.6-10.4-38.2-31h18.8c0.7 10 7 15 19.4 15 12.3 0 18.3-3.9 18.2-11.6z"/>
				<path id="&lt;Compound Path&gt;" class="s0" d="m402.8 94.6v46.9h-18.7v-43.2c0-20.9 10.5-31.3 31.5-31.3 9.4 0 16.6 2.1 21.9 6.2 5.2-4 12.5-5.9 21.9-5.9 20.9 0 31.3 10.4 31.2 31.3v43.2h-9.6c-6.1-0.5-9.1-3.4-9.1-9.2v-37.7c-0.4-7.6-4.6-11.4-12.8-11.4-8.2 0-12.3 3.8-12.5 11.4v46.6h-18.6v-46.9c-0.4-7.6-4.5-11.4-12.7-11.4-8.2 0-12.4 3.8-12.5 11.4z"/>
				<path id="&lt;Compound Path&gt;" fill-rule="evenodd" class="s0" d="m520.3 87.3h-18.5c2.3-13.6 11.8-20.3 28.7-20.3 20.3 0 30.6 6.7 31 20.3v24.9c0 20.3-12.2 29.3-32.1 30.7-17.6 1.4-29.8-6.8-29.8-23.1 0.4-17.6 13.2-22.3 31.8-24.1 7.9-1 11.9-3.3 11.9-7.3-0.4-4.2-4.3-6.3-11.9-6.3-6.5 0-10.1 1.7-11.1 5.2zm23.3 24.1v-6.8c-4.3 1.8-9.3 3.3-14.7 4.4-7.4 1.4-11.1 4.9-11.1 10.3 0.4 5.8 3.5 8.6 9.3 8.6 10.2 0 16.5-6.1 16.5-16.5z"/>
				<path id="&lt;Compound Path&gt;" class="s0" d="m570.3 103.6c0.6-23.7 13.2-35.5 37.8-35.5h2.6v19.2h-6.2c-10.3 0-15.4 5.4-15.4 16v38.2h-18.8z"/>
				<path id="&lt;Compound Path&gt;" class="s0" d="m641.1 81.3h-2v40.6c0 3.1 1.8 4.7 5.5 4.7h5.6v14.1c-5.9 0.5-12.4 0.5-19.4-0.2-6.9-0.7-10.2-5-10.1-13.2v-80.1h9.6c4.8 0 8.8 4.4 8.8 9.3v11.6h11.1v4c0 5.3-4 9.2-9.1 9.2z"/>
				<path id="&lt;Compound Path&gt;" fill-rule="evenodd" class="s1" d="m377.6 207.3c0 23.1-10 40.3-28.2 45.2-4.7 1.2-11.4 1.9-20 1.9h-31.7v-84.2c0-6.5 3.2-10 9.7-10.1h27.2c29.9 0 43 17.1 43 47.2zm-43-30.7h-17.9v60.8h15.4c19.1 0 25.8-10.3 25.8-30.1 0-18.9-5.9-30.7-23.3-30.7z"/>
				<path id="&lt;Compound Path&gt;" class="s1" d="m386.4 216.5c0.6-23.7 13.2-35.5 37.8-35.5h2.6v19.2h-6.2c-10.3 0-15.4 5.4-15.4 16.1v38.1h-18.8z"/>
				<path id="&lt;Compound Path&gt;" fill-rule="evenodd" class="s1" d="m501.6 218.1c0 25.2-11.3 38-33.5 38-22.2 0-33.3-12.8-33.3-38 0-25.5 11.1-38.2 33.3-38.2 22.2 0 33.5 12.7 33.5 38.2zm-48 0c0.1 14.3 5 21.5 14.4 21.5 9.4 0 14.1-7.5 14.3-22.1 0-14.3-4.7-21.3-14.2-21.3-9.7 0-14.5 7.3-14.5 21.9z"/>
				<path id="&lt;Compound Path&gt;" fill-rule="evenodd" class="s1" d="m528.9 274q0 9.1-9.2 9.1h-9.3v-70.2c1-21.9 12.4-32.7 34.4-32.7q34.2 0 34.2 37c0 25-9.8 37.9-29.3 38.6-9.2 0-16.1-3.7-20.8-11.4zm15.7-34.7c9.9 0 15.1-7 15.5-21.2 0-14.8-5.3-22.2-15.8-22.2-10.6 0-15.6 7.4-15.4 22.2 0.5 14.2 5.7 21.2 15.7 21.2z"/>
				<path id="&lt;Compound Path&gt;" class="s1" d="m606 169.1v85.3h-18.4v-94.3h9.5c4.9 0 8.9 4.2 8.9 9z"/>
				<path id="&lt;Compound Path&gt;" fill-rule="evenodd" class="s1" d="m649.1 256.1c-22.2-0.7-33.3-13.6-33.3-38.6 0-24.9 11.3-37.4 33.6-37.6 23.3 0 34.3 14.3 32.9 43h-47.5c0.7 11.3 5.6 16.9 14.6 16.9 4.3 0 8.3-1.8 11.9-5.2 1.7-1.8 3.8-2.7 6.3-2.7h13.6c-4 15.6-14 24.2-32.1 24.2zm-14-46.4h27.6c-1.1-9.7-5.7-14.7-13.6-14.7-7.9 0-12.6 5-14 14.7z"/>
				<path id="&lt;Compound Path&gt;" class="s1" d="m711.3 194.2h-2v40.7c0 3 1.8 4.7 5.4 4.7h5.7v14c-5.9 0.5-12.5 0.5-19.4-0.2-6.9-0.7-10.3-5-10.1-13.1v-80.2h9.6c4.8 0 8.8 4.4 8.8 9.3v11.6h11.1v4.1c0 5.2-4 9.1-9.1 9.1z"/>
				<path id="&lt;Compound Path&gt;" class="s1" d="m760.2 241.1c7.8 0 11.7-2.2 11.7-6.9 0-3.8-6.4-6.8-19-9.1-16.2-2.9-24.6-10.1-24.7-21.6 0-15.8 12.5-23.3 29.3-23.6q14.1 0 22.4 6.3 8.1 6.4 8.8 17.9h-11.7c-4.3-0.2-7.1-1.7-8.2-4.6-1.2-3.2-5-5-11.1-5-7.2 0-10.8 1.9-10.8 5.7 0 3.7 4.7 6.6 14.3 8.4 12.5 2.5 20.7 5.7 24.7 9.5 3.5 3.6 5.1 8 5.1 13 0 18-14.1 24.7-33.5 24.7-10.3 0-18.1-2.2-23.1-6.5-5.5-4.2-8.3-10.6-8.3-19h18.9c0.4 8 6.2 10.8 15.2 10.8z"/>
			</g>
			<g id="&lt;Group&gt;">
				<g id="&lt;Group&gt;">
					<path id="&lt;Path&gt;" class="s0" d="m238.1 185.2c0 2.2-0.1 4.4-0.3 6.6q-0.1 0.6-0.1 1.2-0.3 3.3-1 6.4-0.1 0.6-0.2 1.1-1.4 6.7-3.9 13-0.2 0.4-0.3 0.9-1.3 3.1-2.9 6.1-0.1 0.3-0.3 0.6c-2.2 4.2-4.7 8.2-7.6 12q-0.1 0.2-0.2 0.4-2.2 2.8-4.7 5.5 0 0.1 0 0.1c-8.4 9.2-18.7 16.6-30.2 21.1q0 0 0 0-0.6 0.3-1.1 0.5-0.3 0.1-0.5 0.1-3.1 1.2-6.3 2-0.3 0.1-0.5 0.2-3.2 0.8-6.5 1.4 0 0 0 0v-0.1c-0.6 0.1-1 0.2-1.5 0.3-2.4 0.3-4.8 0.5-7.3 0.6q-0.1 0-0.1 0-0.1 0-0.2 0c-2.4-0.1-4.9-0.3-7.2-0.6-0.5-0.1-1-0.2-1.5-0.3v0.1q0 0 0 0-3.3-0.6-6.5-1.4-0.3-0.1-0.6-0.2-3.2-0.8-6.3-2-0.2 0-0.4-0.1-0.6-0.2-1.2-0.5 0 0 0 0c-11.5-4.5-21.8-11.9-30.1-21.1q-0.1 0-0.1-0.1-2.4-2.7-4.6-5.5-0.2-0.2-0.3-0.4l-7.6-12q-0.1-0.3-0.3-0.6-1.5-3-2.8-6.1-0.2-0.5-0.4-0.9-2.5-6.3-3.9-13-0.1-0.5-0.2-1.1-0.6-3.1-1-6.4 0-0.6-0.1-1.2c-0.2-2.2-0.3-4.4-0.3-6.6q0-0.1 0-0.1c0.1-2.2 0.2-4.4 0.4-6.6q0.1-0.7 0.2-1.3 0.4-3.2 1.1-6.4 0.1-0.6 0.3-1.3c0.5-2.2 1.1-4.4 1.9-6.5q0-0.1 0-0.1 0.4-1.1 0.8-2.2c5.4-13.8 14.7-25.7 22.8-37.9 0.1-0.1 27.7-40.7 34.2-49.8q7-9.6 13.9-19.3c4.6 6.5 42.9 61.4 47.8 68.7q0.1 0.2 0.2 0.4c5.5 8.2 11.5 16.3 16.5 25h-6.1l-30.6-23.7h-17c-2.3-9.6-10.9-16.8-21.2-16.8-12 0-21.7 9.7-21.7 21.7 0 12 9.7 21.7 21.7 21.7 10.3 0 18.9-7.2 21.2-16.8h13.6l30.7 23.6h14.3c0.5 1.1 1 2.1 1.4 3.2q0.4 1.1 0.8 2.2 0 0 0 0.1c0.8 2.1 1.4 4.3 2 6.5q0.1 0.7 0.3 1.3 0.7 3.2 1.1 6.4 0 0.6 0.1 1.3c0.2 2.2 0.4 4.4 0.4 6.6q0 0 0 0.1z"/>
					<path id="&lt;Path&gt;" class="s0" d="m152.2 141.5c-6.9 0-12.5-5.6-12.5-12.5 0-6.9 5.6-12.5 12.5-12.5 6.9 0 12.5 5.6 12.5 12.5 0 6.9-5.6 12.5-12.5 12.5z"/>
				</g>
				<g id="&lt;Group&gt;">
					<path id="&lt;Path&gt;" class="s1" d="m63.4 188.4q-2.1 0-4.2 0.4-0.1-2.1-0.1-4c0.1-2.9 0.2-5.9 0.6-9.3l0.2-1.7q0.1-0.9 0.2-1.7 3.5 0 7 0 1.5 0 2.9 0c-0.2 1-0.3 1.9-0.5 2.9l-0.1 1.5c-0.3 3.1-0.5 5.8-0.5 8.2q0 2.2 0.1 4.5c-1.8-0.5-3.6-0.8-5.6-0.8z"/>
					<path id="&lt;Path&gt;" class="s2" d="m70.6 202.7c-0.2-1-0.3-2.1-0.5-3.1 3.5 2.2 5.8 6.1 5.8 10.5 0 2.2-0.6 4.2-1.6 6-1.4-4-2.6-8-3.5-12.1z"/>
					<path id="&lt;Compound Path&gt;" fill-rule="evenodd" class="s3" d="m257.9 184.9c0 2.5-0.1 5.2-0.4 8.3v0.6h-93.7l-24.1 21.5h-55.2c-1 4.1-3.3 7.7-6.3 10.5-2.3 2.3-5.2 4-8.4 5-2 0.6-4.1 1-6.4 1-12 0-21.7-9.7-21.7-21.7 0-10.5 7.5-19.3 17.5-21.3q2.1-0.4 4.2-0.4c2 0 3.8 0.3 5.6 0.8 7.8 2 13.9 8.3 15.7 16.3h51.3l24.1-21.4h97.8q0 0.4 0 0.8zm-183.6 31.2c1-1.8 1.6-3.8 1.6-6 0-4.4-2.3-8.3-5.8-10.5-1.9-1.2-4.2-2-6.7-2-1.1 0-2.3 0.2-3.3 0.5-5.3 1.5-9.1 6.3-9.1 12 0 6.9 5.6 12.5 12.4 12.5q1.4 0 2.7-0.3c3.6-0.8 6.5-3.1 8.2-6.2z"/>
					<path id="&lt;Compound Path&gt;" fill-rule="evenodd" class="s3" d="m257.1 171c0.3 1.6 0.5 3.3 0.8 4.9h-206.1c-2.2 9.6-10.8 16.8-21.1 16.8-12 0-21.7-9.7-21.7-21.7 0-12 9.7-21.7 21.7-21.7 10.3 0 18.9 7.2 21.1 16.8h204c0.3 1.1 0.6 2.2 0.9 3.3zm-213.9 0c0-6.9-5.6-12.5-12.5-12.5-6.9 0-12.5 5.6-12.5 12.5 0 6.9 5.6 12.5 12.5 12.5 6.9 0 12.5-5.6 12.5-12.5z"/>
					<path id="&lt;Path&gt;" class="s1" d="m267.6 184.7c0.1 2.9-0.1 5.9-0.4 9.3l-0.1 1.7c-0.3 3-0.8 5.9-1.3 8.8l-0.3 1.5c-1.3 6.1-3.1 12.1-5.4 17.9l-0.5 1.2c-1.2 2.9-2.5 5.7-3.9 8.5l-0.3 0.4c-3.1 6.1-6.6 11.7-10.6 16.9l-0.3 0.5c-2 2.6-4.2 5.2-6.4 7.6l-0.1 0.1c-11.7 12.9-26 22.9-41.5 29l-2.3 0.9c-2.6 1-5.5 1.9-8.6 2.7l-0.8 0.2c-3.1 0.9-6.1 1.5-8.9 2l-5.7 0.9v-0.2c-2.3 0.2-4.4 0.4-6.5 0.4l-0.1 0.1h-0.4c-2.2-0.1-4.4-0.3-6.7-0.5v0.1l-5.6-0.8c-2.9-0.5-5.8-1.1-9-2l-0.8-0.2c-3-0.8-5.9-1.7-8.7-2.7l-2.2-0.9c-15.4-6.1-29.8-16.1-41.5-29q-3.4-3.8-6.4-7.8l-0.3-0.4c-4-5.2-7.5-10.8-10.5-16.5l-0.4-0.8c-0.5-0.9-0.9-1.9-1.3-2.8 3.2-1 6.1-2.7 8.4-5 0.5 1.1 1 2.3 1.5 3.3l0.4 0.8c2.8 5.3 6 10.4 9.6 15.1l0.3 0.4c1.9 2.5 3.8 4.8 5.8 7 10.8 11.9 23.9 21.1 38 26.7l1.9 0.7q3.8 1.4 8 2.5l0.7 0.2q2.4 0.6 4.7 1.1l5.3 0.9c3.2 0.5 6.2 0.7 8.9 0.8 2.9-0.1 5.8-0.3 9.2-0.8l6-1.1q1.9-0.4 3.9-0.9l0.7-0.2c2.7-0.7 5.4-1.6 7.9-2.5l1.9-0.7c14.1-5.6 27.2-14.8 37.9-26.6l0.2-0.1c1.9-2.2 3.9-4.5 5.7-7l0.4-0.4c3.6-4.8 6.8-9.8 9.5-15.1l0.3-0.5c1.4-2.8 2.6-5.4 3.7-8l0.4-1.1c2.1-5.3 3.8-10.8 4.9-16.3l0.3-1.3c0.5-2.6 0.9-5.3 1.2-8l0.1-0.9v-0.6c0.3-3.1 0.4-5.8 0.4-8.3q0-0.4 0-0.8c-0.1-2.4-0.2-4.8-0.5-7.6l-0.2-1.5c-0.1-1.1-0.3-2.1-0.5-3.2l-1.2-6.4c-0.3-1.2-0.6-2.2-0.9-3.3-0.5-1.7-1-3.4-1.5-4.9q-0.5-1.5-1.1-2.8c-6.4-16.5-27.2-45.8-29.5-49.1-6.5-9.7-36.2-53.1-44.9-65.2l-14.2-19.8c-14.4 20.5-58.8 84.6-59.3 85.2-2.2 3.3-4.5 6.7-6.8 10-5.3 7.7-14.9 23-20.6 33.1q-4.9 0-9.9 0c5.7-11.7 86.8-131.5 92.6-139.6l4-5.5 22.1 30.9c8.8 12.2 38.6 55.7 44.9 65.2 4 5.5 24 34.1 30.7 51.3q0.6 1.5 1.2 3c0.9 2.8 1.8 5.8 2.6 9.2l0.5 1.8c0.6 2.9 1.1 5.9 1.5 8.9l0.2 1.7c0.3 3.4 0.5 6.4 0.5 9.2z"/>
				</g>
			</g>
		</g>
	</g>
</svg>